<svg width="30" height="30" viewBox="0 0 30 30" fill="none" xmlns="http://www.w3.org/2000/svg">
<path d="M10.5224 4.0625C10.8724 3.325 11.6274 2.8125 12.4999 2.8125H17.4999C18.3724 2.8125 19.1261 3.325 19.4774 4.0625C20.3311 4.07 20.9974 4.10875 21.5924 4.34125C22.3027 4.61909 22.9204 5.09127 23.3749 5.70375C23.8336 6.32125 24.0499 7.1125 24.3449 8.20125L24.3911 8.37125L24.3936 8.38L25.4861 12.535L25.5011 12.5138C25.5536 12.5704 25.6041 12.63 25.6524 12.6925C26.7786 14.135 26.2424 16.28 25.1699 20.5688C25.0732 20.9596 24.9816 21.3233 24.8949 21.66L21.7986 17.9438L24.0861 14.5875L23.4549 12.185L20.5499 16.4463L16.2199 11.25H17.8949C20.2611 11.25 21.9949 11.25 23.2674 11.4713L22.5811 8.86125C22.2186 7.53125 22.0899 7.1175 21.8686 6.82125C21.6242 6.49157 21.292 6.2373 20.9099 6.0875C20.6349 5.98 20.3024 5.94875 19.4749 5.94C19.2972 6.31333 19.0174 6.62866 18.6678 6.84945C18.3183 7.07024 17.9133 7.18746 17.4999 7.1875H12.4999C12.0864 7.18746 11.6815 7.07024 11.3319 6.84945C10.9824 6.62866 10.7026 6.31333 10.5249 5.94C9.69739 5.94875 9.36489 5.98 9.08989 6.0875C8.70734 6.2371 8.37465 6.49139 8.12989 6.82125C7.90989 7.1175 7.78114 7.53125 7.41739 8.86125L6.73239 11.4713C8.00489 11.25 9.73864 11.25 12.1061 11.25H13.7799L9.44989 16.4463L6.54489 12.185L5.91239 14.5875L8.19989 17.9438L5.10364 21.66C5.01697 21.3233 4.9253 20.9596 4.82864 20.5688C3.75614 16.28 3.21989 14.135 4.34614 12.6925C4.3953 12.63 4.44572 12.5704 4.49739 12.5138L4.51239 12.535L5.60489 8.38L5.60739 8.37125L5.65364 8.20125C5.94989 7.1125 6.16614 6.32 6.62364 5.7025C7.0783 5.09048 7.69601 4.61875 8.40614 4.34125C9.00114 4.10875 9.66614 4.07 10.5211 4.06375" fill="white"/>
<path d="M5.75244 23.8123C6.04369 24.5536 6.37744 25.0711 6.86994 25.4561C7.88744 26.2498 9.29369 26.2498 12.1062 26.2498H13.8649L9.29994 19.5548L5.75244 23.8123ZM16.1349 26.2498H17.8937C20.7062 26.2498 22.1124 26.2498 23.1299 25.4561C23.6224 25.0711 23.9562 24.5536 24.2474 23.8111L20.6999 19.5548L16.1349 26.2498ZM14.9999 24.5861L10.5487 18.0561L14.9999 12.7148L19.4512 18.0561L14.9999 24.5861Z" fill="white"/>
</svg>
