<svg width="24" height="24" viewBox="0 0 24 24" fill="none" xmlns="http://www.w3.org/2000/svg">
<path d="M8.41831 3.25C8.69831 2.66 9.30231 2.25 10.0003 2.25H14.0003C14.6983 2.25 15.3013 2.66 15.5823 3.25C16.2653 3.256 16.7983 3.287 17.2743 3.473C17.8425 3.69527 18.3367 4.07302 18.7003 4.563C19.0673 5.057 19.2403 5.69 19.4763 6.561L19.5133 6.697L19.5153 6.704L20.3893 10.028L20.4013 10.011C20.4433 10.0563 20.4837 10.104 20.5223 10.154C21.4233 11.308 20.9943 13.024 20.1363 16.455C20.0589 16.7677 19.9857 17.0586 19.9163 17.328L17.4393 14.355L19.2693 11.67L18.7643 9.748L16.4403 13.157L12.9763 9H14.3163C16.2093 9 17.5963 9 18.6143 9.17704L18.0653 7.089C17.7753 6.025 17.6723 5.694 17.4953 5.457C17.2997 5.19326 17.034 4.98984 16.7283 4.87C16.5083 4.784 16.2423 4.759 15.5803 4.752C15.4381 5.05066 15.2143 5.30293 14.9346 5.47956C14.655 5.65619 14.331 5.74997 14.0003 5.75H10.0003C9.66951 5.74997 9.34559 5.65619 9.06591 5.47956C8.78631 5.30293 8.56247 5.05066 8.42031 4.752C7.7583 4.759 7.4923 4.784 7.2723 4.87C6.96626 4.98968 6.70011 5.19311 6.5043 5.457C6.3283 5.694 6.2253 6.025 5.9343 7.089L5.3863 9.17704C6.4043 9 7.7913 9 9.68527 9H11.0243L7.5603 13.157L5.2363 9.748L4.7303 11.67L6.5603 14.355L4.0833 17.328C4.01396 17.0586 3.94063 16.7677 3.8633 16.455C3.0053 13.024 2.5763 11.308 3.4773 10.154C3.51663 10.104 3.55696 10.0563 3.5983 10.011L3.6103 10.028L4.4843 6.704L4.4863 6.697L4.5233 6.561C4.7603 5.69 4.9333 5.056 5.2993 4.562C5.66303 4.07238 6.1572 3.695 6.7253 3.473C7.2013 3.287 7.7333 3.256 8.41727 3.251" fill="white"/>
<path d="M4.60156 19.0499C4.83456 19.6429 5.10156 20.0569 5.49556 20.3649C6.30956 20.9999 7.43456 20.9999 9.68457 20.9999H11.0915L7.43956 15.6439L4.60156 19.0499ZM12.9075 20.9999H14.3146C16.5646 20.9999 17.6895 20.9999 18.5035 20.3649C18.8975 20.0569 19.1646 19.6429 19.3975 19.0489L16.5595 15.6439L12.9075 20.9999ZM11.9995 19.6689L8.43857 14.4449L11.9995 10.1719L15.5606 14.4449L11.9995 19.6689Z" fill="white"/>
</svg>
