<svg width="33" height="33" viewBox="0 0 33 33" fill="none" xmlns="http://www.w3.org/2000/svg">
<path d="M16.5 20.966C16.3524 20.966 16.2158 20.9417 16.0902 20.8931C15.9647 20.8446 15.8423 20.7602 15.7231 20.6401L12.1206 17.039C11.9868 16.9052 11.9171 16.7475 11.9116 16.566C11.9061 16.3845 11.9758 16.2181 12.1206 16.0669C12.2728 15.9147 12.4364 15.8373 12.6115 15.8345C12.7875 15.8318 12.9511 15.9065 13.1024 16.0586L15.8125 18.7688V7.56251C15.8125 7.36726 15.878 7.20363 16.0091 7.07163C16.1402 6.93963 16.3038 6.87409 16.5 6.87501C16.6962 6.87593 16.8598 6.94147 16.9909 7.07163C17.122 7.2018 17.1875 7.36543 17.1875 7.56251V18.7688L19.8976 16.0586C20.0315 15.9248 20.1905 15.8547 20.3747 15.8483C20.559 15.8418 20.7268 15.9147 20.878 16.0669C21.0247 16.2181 21.0994 16.3804 21.1021 16.5536C21.1049 16.7269 21.0306 16.8887 20.8794 17.039L17.2769 20.6415C17.1577 20.7607 17.0353 20.8446 16.9098 20.8931C16.7851 20.9417 16.6485 20.966 16.5 20.966ZM9.097 26.125C8.46358 26.125 7.93512 25.9133 7.51162 25.4898C7.08812 25.0663 6.87592 24.5373 6.875 23.903V21.2589C6.875 21.0636 6.94054 20.9005 7.07163 20.7694C7.20271 20.6383 7.36633 20.5723 7.5625 20.5714C7.75867 20.5705 7.92229 20.6365 8.05337 20.7694C8.18446 20.9023 8.25 21.0655 8.25 21.2589V23.903C8.25 24.1148 8.338 24.3091 8.514 24.486C8.69 24.6629 8.88387 24.7509 9.09562 24.75H23.9044C24.1152 24.75 24.3091 24.662 24.486 24.486C24.6629 24.31 24.7509 24.1157 24.75 23.903V21.2589C24.75 21.0636 24.8155 20.9005 24.9466 20.7694C25.0777 20.6383 25.2413 20.5723 25.4375 20.5714C25.6337 20.5705 25.7973 20.6365 25.9284 20.7694C26.0595 20.9023 26.125 21.0655 26.125 21.2589V23.903C26.125 24.5364 25.9133 25.0649 25.4898 25.4884C25.0663 25.9119 24.5373 26.1241 23.903 26.125H9.097Z" fill="white"/>
</svg>
