<svg width="31" height="30" viewBox="0 0 31 30" fill="none" xmlns="http://www.w3.org/2000/svg">
<path d="M27.3229 5H3.96528C3.52279 5 3.09842 5.17559 2.78554 5.48816C2.47265 5.80072 2.29688 6.22464 2.29688 6.66667V23.3333C2.29688 23.7754 2.47265 24.1993 2.78554 24.5118C3.09842 24.8244 3.52279 25 3.96528 25H27.3229C27.7654 25 28.1898 24.8244 28.5027 24.5118C28.8155 24.1993 28.9913 23.7754 28.9913 23.3333V6.66667C28.9913 6.22464 28.8155 5.80072 28.5027 5.48816C28.1898 5.17559 27.7654 5 27.3229 5ZM26.0382 23.3333H5.35005L11.1895 17.3L9.98821 16.1417L3.96528 22.3667V7.93333L14.3344 18.2417C14.647 18.5521 15.0699 18.7263 15.5106 18.7263C15.9514 18.7263 16.3743 18.5521 16.6868 18.2417L27.3229 7.675V22.2583L21.1832 16.125L20.007 17.3L26.0382 23.3333ZM5.05808 6.66667H25.9715L15.5106 17.0583L5.05808 6.66667Z" fill="white"/>
</svg>
