<svg width="31" height="30" viewBox="0 0 31 30" fill="none" xmlns="http://www.w3.org/2000/svg">
<path fill-rule="evenodd" clip-rule="evenodd" d="M9.70312 12.5C9.70313 10.9253 10.3293 9.41505 11.444 8.30155C12.5586 7.18806 14.0704 6.5625 15.6468 6.5625C17.2232 6.5625 18.735 7.18806 19.8496 8.30155C20.9643 9.41505 21.5905 10.9253 21.5905 12.5C21.5905 14.0747 20.9643 15.5849 19.8496 16.6984C18.735 17.8119 17.2232 18.4375 15.6468 18.4375C14.0704 18.4375 12.5586 17.8119 11.444 16.6984C10.3293 15.5849 9.70312 14.0747 9.70312 12.5ZM15.6468 8.4375C14.5682 8.4375 13.5339 8.86551 12.7712 9.62738C12.0085 10.3892 11.5801 11.4226 11.5801 12.5C11.5801 13.5774 12.0085 14.6108 12.7712 15.3726C13.5339 16.1345 14.5682 16.5625 15.6468 16.5625C16.7254 16.5625 17.7598 16.1345 18.5224 15.3726C19.2851 14.6108 19.7135 13.5774 19.7135 12.5C19.7135 11.4226 19.2851 10.3892 18.5224 9.62738C17.7598 8.86551 16.7254 8.4375 15.6468 8.4375Z" fill="white"/>
<path fill-rule="evenodd" clip-rule="evenodd" d="M5.03795 11.0713C5.25239 8.47997 6.43416 6.06391 8.34877 4.3025C10.2634 2.54109 12.7709 1.56307 15.3737 1.5625H15.9143C18.5171 1.56307 21.0246 2.54109 22.9392 4.3025C24.8538 6.06391 26.0356 8.47997 26.25 11.0713C26.4886 13.9579 25.5958 16.8243 23.7599 19.0662L17.7624 26.3925C17.5058 26.706 17.1826 26.9587 16.8162 27.1322C16.4498 27.3057 16.0494 27.3957 15.644 27.3957C15.2385 27.3957 14.8381 27.3057 14.4718 27.1322C14.1054 26.9587 13.7822 26.706 13.5255 26.3925L7.52804 19.0662C5.69217 16.8243 4.79941 13.9579 5.03795 11.0713ZM15.3737 3.4375C13.2423 3.4384 11.189 4.23956 9.62122 5.68206C8.05345 7.12456 7.08568 9.10302 6.90989 11.225C6.71129 13.6274 7.45421 16.0129 8.98205 17.8787L14.9795 25.2063C15.0602 25.3048 15.1617 25.3843 15.2768 25.4388C15.392 25.4934 15.5178 25.5217 15.6452 25.5217C15.7727 25.5217 15.8985 25.4934 16.0136 25.4388C16.1288 25.3843 16.2303 25.3048 16.3109 25.2063L22.3084 17.8787C23.8354 16.0125 24.5774 13.627 24.3781 11.225C24.2023 9.10281 23.2343 7.12417 21.6663 5.68164C20.0982 4.2391 18.0447 3.43809 15.913 3.4375H15.3737Z" fill="white"/>
</svg>
