<svg width="45" height="45" viewBox="0 0 45 45" fill="none" xmlns="http://www.w3.org/2000/svg">
<path d="M22.5 28.59C22.2988 28.59 22.1125 28.5569 21.9412 28.4906C21.77 28.4244 21.6031 28.3094 21.4406 28.1456L16.5281 23.235C16.3456 23.0525 16.2506 22.8375 16.2431 22.59C16.2356 22.3425 16.3306 22.1156 16.5281 21.9094C16.7356 21.7019 16.9587 21.5963 17.1975 21.5925C17.4375 21.5888 17.6606 21.6906 17.8669 21.8981L21.5625 25.5938V10.3125C21.5625 10.0463 21.6519 9.82314 21.8306 9.64314C22.0094 9.46314 22.2325 9.37376 22.5 9.37501C22.7675 9.37626 22.9906 9.46564 23.1694 9.64314C23.3481 9.82064 23.4375 10.0438 23.4375 10.3125V25.5938L27.1331 21.8981C27.3156 21.7156 27.5325 21.62 27.7837 21.6113C28.035 21.6025 28.2638 21.7019 28.47 21.9094C28.67 22.1156 28.7719 22.3369 28.7756 22.5731C28.7794 22.8094 28.6781 23.03 28.4719 23.235L23.5594 28.1475C23.3969 28.31 23.23 28.4244 23.0588 28.4906C22.8888 28.5569 22.7025 28.59 22.5 28.59ZM12.405 35.625C11.5413 35.625 10.8206 35.3363 10.2431 34.7588C9.66562 34.1813 9.37625 33.46 9.375 32.595V28.9894C9.375 28.7231 9.46438 28.5006 9.64313 28.3219C9.82188 28.1431 10.045 28.0531 10.3125 28.0519C10.58 28.0506 10.8031 28.1406 10.9819 28.3219C11.1606 28.5031 11.25 28.7256 11.25 28.9894V32.595C11.25 32.8838 11.37 33.1488 11.61 33.39C11.85 33.6313 12.1144 33.7513 12.4031 33.75H32.5969C32.8844 33.75 33.1488 33.63 33.39 33.39C33.6313 33.15 33.7512 32.885 33.75 32.595V28.9894C33.75 28.7231 33.8394 28.5006 34.0181 28.3219C34.1969 28.1431 34.42 28.0531 34.6875 28.0519C34.955 28.0506 35.1781 28.1406 35.3569 28.3219C35.5356 28.5031 35.625 28.7256 35.625 28.9894V32.595C35.625 33.4588 35.3363 34.1794 34.7588 34.7569C34.1813 35.3344 33.46 35.6238 32.595 35.625H12.405Z" fill="white"/>
</svg>
