<svg width="31" height="30" viewBox="0 0 31 30" fill="none" xmlns="http://www.w3.org/2000/svg">
<path d="M25.0228 27.5C25.5206 27.5 25.998 27.3025 26.35 26.9508C26.702 26.5992 26.8997 26.1223 26.8997 25.625V21.25C26.8997 20.7527 26.702 20.2758 26.35 19.9242C25.998 19.5725 25.5206 19.375 25.0228 19.375C23.5588 19.375 22.1198 19.15 20.7433 18.6875C20.4143 18.5837 20.063 18.572 19.7277 18.6535C19.3924 18.735 19.0859 18.9068 18.8414 19.15L17.0395 20.95C13.9265 19.253 11.3681 16.6972 9.66931 13.5875L11.4587 11.8C11.9717 11.3125 12.1594 10.5875 11.9342 9.8875C11.4837 8.525 11.2585 7.0875 11.2585 5.625C11.2585 5.12772 11.0607 4.65081 10.7087 4.29917C10.3567 3.94754 9.87931 3.75 9.38151 3.75H5.00195C4.50415 3.75 4.02674 3.94754 3.67475 4.29917C3.32275 4.65081 3.125 5.12772 3.125 5.625C3.125 17.6875 12.9477 27.5 25.0228 27.5ZM5.00195 5H9.38151C9.54744 5 9.70658 5.06585 9.82391 5.18306C9.94125 5.30027 10.0072 5.45924 10.0072 5.625C10.0072 7.225 10.2574 8.7875 10.7454 10.275C10.808 10.45 10.7955 10.7 10.5953 10.9L8.13021 13.35C10.1949 17.3875 13.223 20.4125 17.2772 22.5L19.7173 20.0375C19.8924 19.8625 20.1302 19.8125 20.3554 19.875C21.857 20.375 23.4211 20.625 25.0228 20.625C25.1887 20.625 25.3479 20.6908 25.4652 20.8081C25.5825 20.9253 25.6484 21.0842 25.6484 21.25V25.625C25.6484 25.7908 25.5825 25.9497 25.4652 26.0669C25.3479 26.1842 25.1887 26.25 25.0228 26.25C13.6359 26.25 4.3763 17 4.3763 5.625C4.3763 5.45924 4.44222 5.30027 4.55955 5.18306C4.67688 5.06585 4.83602 5 5.00195 5Z" fill="white"/>
</svg>
